<svg width="34" height="33" viewBox="0 0 34 33" fill="none" xmlns="http://www.w3.org/2000/svg">
<rect x="0.932373" y="0.588379" width="32.6081" height="31.6081" rx="15.804" fill="#1DB954"/>
<path d="M17.2366 7.39258C12.2658 7.39258 8.23657 11.4219 8.23657 16.3926C8.23657 21.3633 12.2658 25.3926 17.2366 25.3926C22.2073 25.3926 26.2366 21.3633 26.2366 16.3926C26.2366 11.4225 22.2073 7.39319 17.2366 7.39258ZM21.3641 20.3727C21.2026 20.638 20.8568 20.7209 20.5928 20.5594C18.4796 19.2679 15.8192 18.9762 12.6865 19.6917C12.3844 19.7611 12.0835 19.5719 12.0147 19.2698C11.9453 18.9676 12.1338 18.6667 12.4366 18.5979C15.8646 17.8149 18.8057 18.152 21.178 19.6014C21.4421 19.7641 21.5262 20.1086 21.3641 20.3727V20.3727ZM22.4652 17.923C22.262 18.2534 21.8296 18.3565 21.4998 18.1539C19.0814 16.6671 15.393 16.2366 12.5318 17.105C12.1608 17.2173 11.769 17.0079 11.656 16.6376C11.5442 16.2667 11.7537 15.8755 12.124 15.7625C15.3924 14.7707 19.456 15.2509 22.2337 16.9582C22.5641 17.1615 22.6685 17.5932 22.4652 17.923ZM22.5598 15.3707C19.6587 13.6481 14.8734 13.4896 12.1037 14.3297C11.6591 14.4648 11.1887 14.2137 11.0542 13.769C10.9197 13.3244 11.1702 12.854 11.6155 12.7189C14.7948 11.7541 20.0794 11.9402 23.419 13.9226C23.8188 14.1602 23.9502 14.6767 23.7131 15.0759C23.4767 15.4763 22.959 15.6083 22.5598 15.3707Z" fill="white"/>
</svg>
