<svg width="40" height="40" viewBox="0 0 34 32" fill="none" xmlns="http://www.w3.org/2000/svg">
<rect x="0.459229" y="0.196289" width="32.6081" height="31.6081" rx="15.804" fill="#1F1F1F"/>
<path d="M16.7635 7.22266C11.7935 7.22266 7.76343 11.252 7.76343 16.2227C7.76343 20.1992 10.3422 23.5728 13.9182 24.7629C14.368 24.8462 14.5332 24.5676 14.5332 24.3299C14.5332 24.1153 14.5248 23.4063 14.521 22.6543C12.0171 23.1987 11.4887 21.5924 11.4887 21.5924C11.0793 20.5521 10.4894 20.2755 10.4894 20.2755C9.67291 19.7169 10.551 19.7283 10.551 19.7283C11.4548 19.7919 11.9307 20.6558 11.9307 20.6558C12.7334 22.0318 14.0361 21.6339 14.5497 21.404C14.6304 20.8223 14.8637 20.4253 15.1211 20.2006C13.1221 19.9729 11.0206 19.2012 11.0206 15.7527C11.0206 14.7701 11.3722 13.9672 11.948 13.3369C11.8545 13.1102 11.5465 12.1949 12.0351 10.9552C12.0351 10.9552 12.7909 10.7133 14.5108 11.8777C15.2286 11.6782 15.9986 11.5783 16.7635 11.5749C17.5283 11.5783 18.2988 11.6782 19.0181 11.8777C20.736 10.7133 21.4907 10.9552 21.4907 10.9552C21.9805 12.1949 21.6723 13.1102 21.5789 13.3369C22.1559 13.9672 22.5051 14.77 22.5051 15.7527C22.5051 19.2094 20.3997 19.9706 18.3956 20.1934C18.7184 20.4727 19.006 21.0204 19.006 21.86C19.006 23.0642 18.9956 24.0334 18.9956 24.3299C18.9956 24.5694 19.1576 24.85 19.6139 24.7617C23.1879 23.5702 25.7634 20.1979 25.7634 16.2227C25.7634 11.252 21.7339 7.22266 16.7635 7.22266Z" fill="white"/>
<path d="M11.1341 20.0432C11.1144 20.0879 11.0439 20.1013 10.9799 20.0707C10.9146 20.0413 10.8779 19.9803 10.8991 19.9355C10.9185 19.8894 10.9889 19.8766 11.0541 19.9075C11.1195 19.9368 11.1568 19.9983 11.1341 20.0432ZM11.5768 20.4382C11.5339 20.478 11.45 20.4596 11.393 20.3967C11.3342 20.3339 11.3231 20.2501 11.3667 20.2096C11.411 20.1699 11.4923 20.1884 11.5514 20.2513C11.6102 20.3147 11.6217 20.3981 11.5768 20.4383L11.5768 20.4382ZM11.8806 20.9436C11.8254 20.982 11.7352 20.946 11.6795 20.866C11.6243 20.786 11.6243 20.69 11.6807 20.6515C11.7366 20.6131 11.8254 20.6477 11.8818 20.7271C11.9369 20.8085 11.9369 20.9045 11.8805 20.9437L11.8806 20.9436ZM12.3941 21.529C12.3448 21.5834 12.2398 21.5688 12.1628 21.4946C12.0842 21.422 12.0623 21.319 12.1117 21.2646C12.1616 21.2101 12.2673 21.2254 12.3448 21.299C12.4229 21.3715 12.4468 21.4752 12.3942 21.529H12.3941ZM13.0579 21.7266C13.0363 21.7971 12.935 21.8291 12.8331 21.7992C12.7313 21.7684 12.6647 21.6858 12.6852 21.6146C12.7064 21.5436 12.8081 21.5102 12.9108 21.5423C13.0124 21.573 13.0792 21.6549 13.058 21.7266H13.0579ZM13.8135 21.8104C13.816 21.8847 13.7296 21.9462 13.6226 21.9476C13.5149 21.9499 13.4279 21.8898 13.4267 21.8169C13.4267 21.7419 13.5112 21.6809 13.6188 21.6791C13.7258 21.677 13.8135 21.7367 13.8135 21.8104ZM14.5556 21.782C14.5685 21.8544 14.4941 21.9288 14.3878 21.9486C14.2834 21.9676 14.1867 21.9229 14.1733 21.8512C14.1603 21.7769 14.2362 21.7026 14.3404 21.6833C14.4469 21.6648 14.5421 21.7084 14.5556 21.782Z" fill="white"/>
</svg>
